<svg xmlns="http://www.w3.org/2000/svg" width="3000" height="900"><path d="M1387,458L1619,686L1618,445Z" fill="#a7b6eb" stroke="#a7b6eb" stroke-width="1.51"/><path d="M1387,458L1388,697L1619,686Z" fill="#a3b3ec" stroke="#a3b3ec" stroke-width="1.51"/><path d="M1619,686L1858,455L1618,445Z" fill="#a5b4ec" stroke="#a5b4ec" stroke-width="1.51"/><path d="M1858,455L1617,215L1618,445Z" fill="#aebaea" stroke="#aebaea" stroke-width="1.51"/><path d="M1618,445L1375,215L1387,458Z" fill="#b2bdea" stroke="#b2bdea" stroke-width="1.51"/><path d="M1619,686L1859,698L1858,455Z" fill="#9eb0ed" stroke="#9eb0ed" stroke-width="1.51"/><path d="M1618,930L1859,698L1619,686Z" fill="#95abee" stroke="#95abee" stroke-width="1.51"/><path d="M1387,458L1145,688L1388,697Z" fill="#a6b5ec" stroke="#a6b5ec" stroke-width="1.51"/><path d="M1617,215L1375,215L1618,445Z" fill="#b5bfe9" stroke="#b5bfe9" stroke-width="1.51"/><path d="M1388,697L1618,930L1619,686Z" fill="#98adee" stroke="#98adee" stroke-width="1.51"/><path d="M1145,688L1383,920L1388,697Z" fill="#9db0ed" stroke="#9db0ed" stroke-width="1.51"/><path d="M1383,920L1618,930L1388,697Z" fill="#95abee" stroke="#95abee" stroke-width="1.51"/><path d="M1141,454L1145,688L1387,458Z" fill="#adb9ea" stroke="#adb9ea" stroke-width="1.51"/><path d="M1375,215L1141,454L1387,458Z" fill="#b5bee9" stroke="#b5bee9" stroke-width="1.51"/><path d="M1858,455L1866,207L1617,215Z" fill="#b1bcea" stroke="#b1bcea" stroke-width="1.51"/><path d="M1385,-29L1139,204L1375,215Z" fill="#c2c8e6" stroke="#c2c8e6" stroke-width="1.51"/><path d="M2097,218L1866,207L1858,455Z" fill="#aebaea" stroke="#aebaea" stroke-width="1.51"/><path d="M1859,698L2100,688L1858,455Z" fill="#9baeee" stroke="#9baeee" stroke-width="1.51"/><path d="M1618,930L1862,935L1859,698Z" fill="#8ea7ef" stroke="#8ea7ef" stroke-width="1.51"/><path d="M1145,688L1141,926L1383,920Z" fill="#99aeed" stroke="#99aeed" stroke-width="1.51"/><path d="M1383,920L1375,1161L1618,930Z" fill="#91a9ef" stroke="#91a9ef" stroke-width="1.51"/><path d="M1618,930L1618,1169L1862,935Z" fill="#8ca6ef" stroke="#8ca6ef" stroke-width="1.51"/><path d="M891,690L1141,926L1145,688Z" fill="#a1b3ec" stroke="#a1b3ec" stroke-width="1.51"/><path d="M1375,215L1139,204L1141,454Z" fill="#bbc3e8" stroke="#bbc3e8" stroke-width="1.51"/><path d="M1141,454L899,450L1145,688Z" fill="#b0bbea" stroke="#b0bbea" stroke-width="1.51"/><path d="M1385,-29L1375,215L1617,215Z" fill="#bfc6e7" stroke="#bfc6e7" stroke-width="1.51"/><path d="M1866,207L1619,-26L1617,215Z" fill="#bbc3e7" stroke="#bbc3e7" stroke-width="1.51"/><path d="M2100,932L2100,688L1859,698Z" fill="#8ea7ef" stroke="#8ea7ef" stroke-width="1.51"/><path d="M2100,688L2105,454L1858,455Z" fill="#9eb0ed" stroke="#9eb0ed" stroke-width="1.51"/><path d="M1619,-26L1385,-29L1617,215Z" fill="#c3c9e6" stroke="#c3c9e6" stroke-width="1.51"/><path d="M1141,926L1375,1161L1383,920Z" fill="#94abee" stroke="#94abee" stroke-width="1.51"/><path d="M1375,1161L1618,1169L1618,930Z" fill="#8fa8ef" stroke="#8fa8ef" stroke-width="1.51"/><path d="M1139,204L899,450L1141,454Z" fill="#b9c2e8" stroke="#b9c2e8" stroke-width="1.51"/><path d="M899,450L891,690L1145,688Z" fill="#adb9ea" stroke="#adb9ea" stroke-width="1.51"/><path d="M1141,926L1149,1161L1375,1161Z" fill="#96acee" stroke="#96acee" stroke-width="1.51"/><path d="M1866,207L1862,-31L1619,-26Z" fill="#bfc6e7" stroke="#bfc6e7" stroke-width="1.51"/><path d="M2105,454L2097,218L1858,455Z" fill="#a7b6eb" stroke="#a7b6eb" stroke-width="1.51"/><path d="M1617,-279L1379,-269L1385,-29Z" fill="#c7cbe5" stroke="#c7cbe5" stroke-width="1.51"/><path d="M2097,-24L1862,-31L1866,207Z" fill="#bcc4e7" stroke="#bcc4e7" stroke-width="1.51"/><path d="M1618,1169L1865,1162L1862,935Z" fill="#8aa5f0" stroke="#8aa5f0" stroke-width="1.51"/><path d="M1862,935L2100,932L1859,698Z" fill="#8aa5f0" stroke="#8aa5f0" stroke-width="1.51"/><path d="M1865,1162L2100,932L1862,935Z" fill="#87a3f0" stroke="#87a3f0" stroke-width="1.51"/><path d="M2100,688L2342,693L2105,454Z" fill="#96abee" stroke="#96abee" stroke-width="1.51"/><path d="M894,933L1149,1161L1141,926Z" fill="#99aeed" stroke="#99aeed" stroke-width="1.51"/><path d="M1375,1161L899,1171L1618,1169Z" fill="#94abee" stroke="#94abee" stroke-width="1.51"/><path d="M1139,204L900,207L899,450Z" fill="#bfc6e7" stroke="#bfc6e7" stroke-width="1.51"/><path d="M1385,-29L1144,-34L1139,204Z" fill="#c8cce5" stroke="#c8cce5" stroke-width="1.51"/><path d="M1379,-269L1144,-34L1385,-29Z" fill="#cacde5" stroke="#cacde5" stroke-width="1.51"/><path d="M907,-24L900,207L1139,204Z" fill="#c8cce5" stroke="#c8cce5" stroke-width="1.51"/><path d="M899,450L669,687L891,690Z" fill="#afbbea" stroke="#afbbea" stroke-width="1.51"/><path d="M891,690L894,933L1141,926Z" fill="#9eb1ed" stroke="#9eb1ed" stroke-width="1.51"/><path d="M2097,218L2097,-24L1866,207Z" fill="#b6c0e8" stroke="#b6c0e8" stroke-width="1.51"/><path d="M2338,210L2097,-24L2097,218Z" fill="#b3bee9" stroke="#b3bee9" stroke-width="1.51"/><path d="M2105,454L2345,441L2097,218Z" fill="#a5b5ec" stroke="#a5b5ec" stroke-width="1.51"/><path d="M2338,929L2342,693L2100,688Z" fill="#8aa4f0" stroke="#8aa4f0" stroke-width="1.51"/><path d="M1144,-34L907,-24L1139,204Z" fill="#cbcee4" stroke="#cbcee4" stroke-width="1.51"/><path d="M2100,932L2338,929L2100,688Z" fill="#85a3f0" stroke="#85a3f0" stroke-width="1.51"/><path d="M1865,1162L2098,1170L2100,932Z" fill="#85a3f0" stroke="#85a3f0" stroke-width="1.51"/><path d="M1618,1169L2098,1170L1865,1162Z" fill="#89a4f0" stroke="#89a4f0" stroke-width="1.51"/><path d="M1617,-279L1385,-29L1619,-26Z" fill="#c5cbe5" stroke="#c5cbe5" stroke-width="1.51"/><path d="M1144,-34L1137,-277L907,-24Z" fill="#cdd0e4" stroke="#cdd0e4" stroke-width="1.51"/><path d="M1617,-279L1619,-26L1867,-269Z" fill="#c3c9e6" stroke="#c3c9e6" stroke-width="1.51"/><path d="M2342,693L2345,441L2105,454Z" fill="#9aadee" stroke="#9aadee" stroke-width="1.51"/><path d="M891,690L652,921L894,933Z" fill="#a1b3ec" stroke="#a1b3ec" stroke-width="1.51"/><path d="M661,445L669,687L899,450Z" fill="#b6bfe9" stroke="#b6bfe9" stroke-width="1.51"/><path d="M661,445L899,450L900,207Z" fill="#bdc4e7" stroke="#bdc4e7" stroke-width="1.51"/><path d="M1867,-269L1619,-26L1862,-31Z" fill="#c1c8e6" stroke="#c1c8e6" stroke-width="1.51"/><path d="M658,204L661,445L900,207Z" fill="#c4c8e6" stroke="#c4c8e6" stroke-width="1.51"/><path d="M894,933L899,1171L1149,1161Z" fill="#9bafed" stroke="#9bafed" stroke-width="1.51"/><path d="M1149,1161L899,1171L1375,1161Z" fill="#97adee" stroke="#97adee" stroke-width="1.51"/><path d="M1618,1169L2828,1177L2098,1170Z" fill="#82a1f1" stroke="#82a1f1" stroke-width="1.51"/><path d="M663,1163L899,1171L894,933Z" fill="#9eb0ed" stroke="#9eb0ed" stroke-width="1.51"/><path d="M2345,441L2338,210L2097,218Z" fill="#a9b7eb" stroke="#a9b7eb" stroke-width="1.51"/><path d="M2337,1163L2338,929L2100,932Z" fill="#80a0f1" stroke="#80a0f1" stroke-width="1.51"/><path d="M2107,-265L1867,-269L2097,-24Z" fill="#bdc5e7" stroke="#bdc5e7" stroke-width="1.51"/><path d="M2097,-24L1867,-269L1862,-31Z" fill="#bfc6e7" stroke="#bfc6e7" stroke-width="1.51"/><path d="M1617,-279L1137,-277L1379,-269Z" fill="#c8cce5" stroke="#c8cce5" stroke-width="1.51"/><path d="M1379,-269L1137,-277L1144,-34Z" fill="#cbcee4" stroke="#cbcee4" stroke-width="1.51"/><path d="M655,-33L658,204L907,-24Z" fill="#d0d2e3" stroke="#d0d2e3" stroke-width="1.51"/><path d="M907,-24L658,204L900,207Z" fill="#cbcee5" stroke="#cbcee5" stroke-width="1.51"/><path d="M669,687L652,921L891,690Z" fill="#a8b6eb" stroke="#a8b6eb" stroke-width="1.51"/><path d="M417,688L652,921L669,687Z" fill="#aab8ea" stroke="#aab8ea" stroke-width="1.51"/><path d="M427,449L669,687L661,445Z" fill="#b8c1e8" stroke="#b8c1e8" stroke-width="1.51"/><path d="M2338,210L2335,-24L2097,-24Z" fill="#b6c0e8" stroke="#b6c0e8" stroke-width="1.51"/><path d="M2574,214L2335,-24L2338,210Z" fill="#afbbea" stroke="#afbbea" stroke-width="1.51"/><path d="M2098,1170L2337,1163L2100,932Z" fill="#82a1f1" stroke="#82a1f1" stroke-width="1.51"/><path d="M2584,933L2575,681L2342,693Z" fill="#85a2f1" stroke="#85a2f1" stroke-width="1.51"/><path d="M2342,693L2575,681L2345,441Z" fill="#92a9ef" stroke="#92a9ef" stroke-width="1.51"/><path d="M2335,-24L2107,-265L2097,-24Z" fill="#bbc3e7" stroke="#bbc3e7" stroke-width="1.51"/><path d="M1867,-269L2580,-275L1617,-279Z" fill="#bdc5e7" stroke="#bdc5e7" stroke-width="1.51"/><path d="M1137,-277L891,-264L907,-24Z" fill="#cfd1e4" stroke="#cfd1e4" stroke-width="1.51"/><path d="M652,921L663,1163L894,933Z" fill="#9fb1ec" stroke="#9fb1ec" stroke-width="1.51"/><path d="M891,-264L655,-33L907,-24Z" fill="#d1d3e3" stroke="#d1d3e3" stroke-width="1.51"/><path d="M428,219L427,449L661,445Z" fill="#c2c8e7" stroke="#c2c8e7" stroke-width="1.51"/><path d="M2345,441L2574,214L2338,210Z" fill="#a6b5ec" stroke="#a6b5ec" stroke-width="1.51"/><path d="M2584,933L2342,693L2338,929Z" fill="#80a0f1" stroke="#80a0f1" stroke-width="1.51"/><path d="M2575,681L2576,443L2345,441Z" fill="#96abee" stroke="#96abee" stroke-width="1.51"/><path d="M428,219L661,445L658,204Z" fill="#c6cae6" stroke="#c6cae6" stroke-width="1.51"/><path d="M652,921L428,931L663,1163Z" fill="#a2b3ec" stroke="#a2b3ec" stroke-width="1.51"/><path d="M427,449L417,688L669,687Z" fill="#b5bfe9" stroke="#b5bfe9" stroke-width="1.51"/><path d="M2335,-24L2339,-265L2107,-265Z" fill="#bac2e8" stroke="#bac2e8" stroke-width="1.51"/><path d="M2576,443L2574,214L2345,441Z" fill="#a0b1ec" stroke="#a0b1ec" stroke-width="1.51"/><path d="M182,443L186,690L417,688Z" fill="#b9c2e8" stroke="#b9c2e8" stroke-width="1.51"/><path d="M418,-32L428,219L658,204Z" fill="#cfd2e4" stroke="#cfd2e4" stroke-width="1.51"/><path d="M2583,1161L2584,933L2338,929Z" fill="#7b9df2" stroke="#7b9df2" stroke-width="1.51"/><path d="M2575,681L2816,448L2576,443Z" fill="#92aaef" stroke="#92aaef" stroke-width="1.51"/><path d="M2829,202L2587,-25L2574,214Z" fill="#abb8ea" stroke="#abb8ea" stroke-width="1.51"/><path d="M417,688L428,931L652,921Z" fill="#a7b6eb" stroke="#a7b6eb" stroke-width="1.51"/><path d="M2587,-25L2339,-265L2335,-24Z" fill="#b7c0e8" stroke="#b7c0e8" stroke-width="1.51"/><path d="M2107,-265L2580,-275L1867,-269Z" fill="#bbc3e7" stroke="#bbc3e7" stroke-width="1.51"/><path d="M655,-33L418,-32L658,204Z" fill="#d3d4e3" stroke="#d3d4e3" stroke-width="1.51"/><path d="M891,-264L667,-269L655,-33Z" fill="#d3d4e3" stroke="#d3d4e3" stroke-width="1.51"/><path d="M1137,-277L667,-269L891,-264Z" fill="#d0d2e3" stroke="#d0d2e3" stroke-width="1.51"/><path d="M2337,1163L2583,1161L2338,929Z" fill="#7c9ef2" stroke="#7c9ef2" stroke-width="1.51"/><path d="M2828,1177L2583,1161L2337,1163Z" fill="#789cf2" stroke="#789cf2" stroke-width="1.51"/><path d="M2574,214L2587,-25L2335,-24Z" fill="#b2bde9" stroke="#b2bde9" stroke-width="1.51"/><path d="M2816,448L2574,214L2576,443Z" fill="#9cb0ed" stroke="#9cb0ed" stroke-width="1.51"/><path d="M187,938L421,1161L428,931Z" fill="#a6b6eb" stroke="#a6b6eb" stroke-width="1.51"/><path d="M428,931L421,1161L663,1163Z" fill="#a3b4ec" stroke="#a3b4ec" stroke-width="1.51"/><path d="M663,1163L182,1172L899,1171Z" fill="#a2b3ec" stroke="#a2b3ec" stroke-width="1.51"/><path d="M182,443L417,688L427,449Z" fill="#bcc4e7" stroke="#bcc4e7" stroke-width="1.51"/><path d="M420,-264L418,-32L655,-33Z" fill="#d6d7e2" stroke="#d6d7e2" stroke-width="1.51"/><path d="M2816,693L2816,448L2575,681Z" fill="#8ba6f0" stroke="#8ba6f0" stroke-width="1.51"/><path d="M2816,693L2575,681L2584,933Z" fill="#81a0f1" stroke="#81a0f1" stroke-width="1.51"/><path d="M2829,931L2816,693L2584,933Z" fill="#799cf2" stroke="#799cf2" stroke-width="1.51"/><path d="M417,688L187,938L428,931Z" fill="#a9b7ea" stroke="#a9b7ea" stroke-width="1.51"/><path d="M182,443L427,449L428,219Z" fill="#c5cae6" stroke="#c5cae6" stroke-width="1.51"/><path d="M183,207L182,443L428,219Z" fill="#cbcee5" stroke="#cbcee5" stroke-width="1.51"/><path d="M2587,-25L2580,-275L2339,-265Z" fill="#b6bfe9" stroke="#b6bfe9" stroke-width="1.51"/><path d="M2339,-265L2580,-275L2107,-265Z" fill="#b8c1e8" stroke="#b8c1e8" stroke-width="1.51"/><path d="M2822,-270L2580,-275L2587,-25Z" fill="#b3bde9" stroke="#b3bde9" stroke-width="1.51"/><path d="M667,-269L420,-264L655,-33Z" fill="#d5d6e2" stroke="#d5d6e2" stroke-width="1.51"/><path d="M418,-32L183,207L428,219Z" fill="#d2d3e3" stroke="#d2d3e3" stroke-width="1.51"/><path d="M3061,214L2829,202L2816,448Z" fill="#9db0ed" stroke="#9db0ed" stroke-width="1.51"/><path d="M2816,448L2829,202L2574,214Z" fill="#a0b2ed" stroke="#a0b2ed" stroke-width="1.51"/><path d="M2583,1161L2829,931L2584,933Z" fill="#769bf2" stroke="#769bf2" stroke-width="1.51"/><path d="M2816,693L3058,452L2816,448Z" fill="#8da6ef" stroke="#8da6ef" stroke-width="1.51"/><path d="M186,690L187,938L417,688Z" fill="#b0bbea" stroke="#b0bbea" stroke-width="1.51"/><path d="M182,1172L187,938L-61,1165Z" fill="#abb9eb" stroke="#abb9eb" stroke-width="1.51"/><path d="M176,-23L183,207L418,-32Z" fill="#d8d8e2" stroke="#d8d8e2" stroke-width="1.51"/><path d="M2829,202L2821,-24L2587,-25Z" fill="#afbbea" stroke="#afbbea" stroke-width="1.51"/><path d="M2583,1161L2828,1177L2829,931Z" fill="#759bf3" stroke="#759bf3" stroke-width="1.51"/><path d="M2098,1170L2828,1177L2337,1163Z" fill="#7c9ef2" stroke="#7c9ef2" stroke-width="1.51"/><path d="M899,1171L2828,1177L1618,1169Z" fill="#8aa5f0" stroke="#8aa5f0" stroke-width="1.51"/><path d="M183,207L-65,440L182,443Z" fill="#c9cde5" stroke="#c9cde5" stroke-width="1.51"/><path d="M-57,934L187,938L186,690Z" fill="#aebaea" stroke="#aebaea" stroke-width="1.51"/><path d="M189,-270L176,-23L418,-32Z" fill="#dadae1" stroke="#dadae1" stroke-width="1.51"/><path d="M187,938L182,1172L421,1161Z" fill="#a8b7eb" stroke="#a8b7eb" stroke-width="1.51"/><path d="M421,1161L182,1172L663,1163Z" fill="#a5b5ec" stroke="#a5b5ec" stroke-width="1.51"/><path d="M899,1171L-300,1177L2828,1177Z" fill="#97adee" stroke="#97adee" stroke-width="1.51"/><path d="M-67,692L186,690L182,443Z" fill="#bcc4e7" stroke="#bcc4e7" stroke-width="1.51"/><path d="M3058,693L2816,693L2829,931Z" fill="#7b9df2" stroke="#7b9df2" stroke-width="1.51"/><path d="M3058,693L3058,452L2816,693Z" fill="#85a2f1" stroke="#85a2f1" stroke-width="1.51"/><path d="M2829,202L3062,-32L2821,-24Z" fill="#acb9ea" stroke="#acb9ea" stroke-width="1.51"/><path d="M3069,925L3058,693L2829,931Z" fill="#739af3" stroke="#739af3" stroke-width="1.51"/><path d="M3062,-32L2822,-270L2821,-24Z" fill="#aebbea" stroke="#aebbea" stroke-width="1.51"/><path d="M2821,-24L2822,-270L2587,-25Z" fill="#b1bdea" stroke="#b1bdea" stroke-width="1.51"/><path d="M420,-264L189,-270L418,-32Z" fill="#d9d9e1" stroke="#d9d9e1" stroke-width="1.51"/><path d="M667,-269L189,-270L420,-264Z" fill="#d8d8e2" stroke="#d8d8e2" stroke-width="1.51"/><path d="M1137,-277L189,-270L667,-269Z" fill="#d4d5e3" stroke="#d4d5e3" stroke-width="1.51"/><path d="M-69,211L-65,440L183,207Z" fill="#cfd1e4" stroke="#cfd1e4" stroke-width="1.51"/><path d="M-69,211L183,207L176,-23Z" fill="#d6d6e2" stroke="#d6d6e2" stroke-width="1.51"/><path d="M-65,440L-67,692L182,443Z" fill="#c2c8e6" stroke="#c2c8e6" stroke-width="1.51"/><path d="M3290,445L3061,214L3058,452Z" fill="#96acee" stroke="#96acee" stroke-width="1.51"/><path d="M3058,452L3061,214L2816,448Z" fill="#96acee" stroke="#96acee" stroke-width="1.51"/><path d="M3067,1176L3069,925L2829,931Z" fill="#6f98f3" stroke="#6f98f3" stroke-width="1.51"/><path d="M3058,693L3290,445L3058,452Z" fill="#8ba5f0" stroke="#8ba5f0" stroke-width="1.51"/><path d="M-67,692L-57,934L186,690Z" fill="#b4bee9" stroke="#b4bee9" stroke-width="1.51"/><path d="M-65,440L-295,454L-67,692Z" fill="#c2c8e6" stroke="#c2c8e6" stroke-width="1.51"/><path d="M-60,-38L-69,211L176,-23Z" fill="#dcdbe1" stroke="#dcdbe1" stroke-width="1.51"/><path d="M3061,214L3062,-32L2829,202Z" fill="#a6b5ec" stroke="#a6b5ec" stroke-width="1.51"/><path d="M3295,-25L3062,-32L3061,214Z" fill="#aab8eb" stroke="#aab8eb" stroke-width="1.51"/><path d="M2828,1177L3067,1176L2829,931Z" fill="#7199f3" stroke="#7199f3" stroke-width="1.51"/><path d="M-300,1177L-61,1165L-57,934Z" fill="#adbaea" stroke="#adbaea" stroke-width="1.51"/><path d="M-57,934L-61,1165L187,938Z" fill="#acb9ea" stroke="#acb9ea" stroke-width="1.51"/><path d="M189,-270L-60,-38L176,-23Z" fill="#dddce1" stroke="#dddce1" stroke-width="1.51"/><path d="M3062,-32L3058,-267L2822,-270Z" fill="#adbaea" stroke="#adbaea" stroke-width="1.51"/><path d="M2822,-270L3290,-267L2580,-275Z" fill="#aebbea" stroke="#aebbea" stroke-width="1.51"/><path d="M-305,205L-295,454L-69,211Z" fill="#cfd1e4" stroke="#cfd1e4" stroke-width="1.51"/><path d="M189,-270L-70,-265L-60,-38Z" fill="#dedde0" stroke="#dedde0" stroke-width="1.51"/><path d="M3299,692L3058,693L3069,925Z" fill="#799cf2" stroke="#799cf2" stroke-width="1.51"/><path d="M3299,692L3290,445L3058,693Z" fill="#85a2f0" stroke="#85a2f0" stroke-width="1.51"/><path d="M3062,-32L3290,-267L3058,-267Z" fill="#adbaea" stroke="#adbaea" stroke-width="1.51"/><path d="M3302,932L3299,692L3069,925Z" fill="#729af3" stroke="#729af3" stroke-width="1.51"/><path d="M-305,205L-69,211L-305,-27Z" fill="#d8d8e2" stroke="#d8d8e2" stroke-width="1.51"/><path d="M-69,211L-295,454L-65,440Z" fill="#cbcee4" stroke="#cbcee4" stroke-width="1.51"/><path d="M-67,692L-303,920L-57,934Z" fill="#b0bcea" stroke="#b0bcea" stroke-width="1.51"/><path d="M-295,454L-308,694L-67,692Z" fill="#bdc5e7" stroke="#bdc5e7" stroke-width="1.51"/><path d="M3299,692L3305,218L3290,445Z" fill="#90a8ef" stroke="#90a8ef" stroke-width="1.51"/><path d="M3290,445L3305,218L3061,214Z" fill="#9bafed" stroke="#9bafed" stroke-width="1.51"/><path d="M3299,692L3302,932L3305,218Z" fill="#84a2f1" stroke="#84a2f1" stroke-width="1.51"/><path d="M3067,1176L3302,932L3069,925Z" fill="#6e98f3" stroke="#6e98f3" stroke-width="1.51"/><path d="M-308,694L-303,920L-67,692Z" fill="#b4bfe9" stroke="#b4bfe9" stroke-width="1.51"/><path d="M-295,454L-305,205L-308,694Z" fill="#c6cbe5" stroke="#c6cbe5" stroke-width="1.51"/><path d="M-305,-27L-69,211L-60,-38Z" fill="#dcdbe1" stroke="#dcdbe1" stroke-width="1.51"/><path d="M3305,218L3295,-25L3061,214Z" fill="#a5b4eb" stroke="#a5b4eb" stroke-width="1.51"/><path d="M3067,1176L3307,1174L3302,932Z" fill="#6e98f3" stroke="#6e98f3" stroke-width="1.51"/><path d="M3302,932L3307,1174L3305,218Z" fill="#789cf2" stroke="#789cf2" stroke-width="1.51"/><path d="M-292,-272L-305,-27L-60,-38Z" fill="#dedde0" stroke="#dedde0" stroke-width="1.51"/><path d="M-305,205L-305,-27L-308,694Z" fill="#cfd1e4" stroke="#cfd1e4" stroke-width="1.51"/><path d="M-308,694L-300,1177L-303,920Z" fill="#adbaea" stroke="#adbaea" stroke-width="1.51"/><path d="M-303,920L-300,1177L-57,934Z" fill="#adbaea" stroke="#adbaea" stroke-width="1.51"/><path d="M-61,1165L-300,1177L182,1172Z" fill="#adbaea" stroke="#adbaea" stroke-width="1.51"/><path d="M182,1172L-300,1177L899,1171Z" fill="#a8b7eb" stroke="#a8b7eb" stroke-width="1.51"/><path d="M3295,-25L3290,-267L3062,-32Z" fill="#adbaea" stroke="#adbaea" stroke-width="1.51"/><path d="M3058,-267L3290,-267L2822,-270Z" fill="#adbaea" stroke="#adbaea" stroke-width="1.51"/><path d="M3305,218L3290,-267L3295,-25Z" fill="#adbaea" stroke="#adbaea" stroke-width="1.51"/><path d="M-70,-265L-292,-272L-60,-38Z" fill="#dedde0" stroke="#dedde0" stroke-width="1.51"/><path d="M189,-270L-292,-272L-70,-265Z" fill="#dedde0" stroke="#dedde0" stroke-width="1.51"/><path d="M1137,-277L-292,-272L189,-270Z" fill="#d9d9e1" stroke="#d9d9e1" stroke-width="1.51"/><path d="M1617,-279L-292,-272L1137,-277Z" fill="#d1d3e3" stroke="#d1d3e3" stroke-width="1.51"/></svg>